HIERARCHY
ROOT Hips
{
	OFFSET 0.00 0.00 0.00
	CHANNELS 6 Xposition Yposition Zposition Xrotation Yrotation Zrotation
	JOINT Spine
	{
		OFFSET 0.00000 1.75157 2.62736
		CHANNELS 3 Xrotation Yrotation Zrotation
		JOINT Spine1
		{
			OFFSET 0.00000 0.60831 3.44992
			CHANNELS 3 Xrotation Yrotation Zrotation
			JOINT Spine2
			{
				OFFSET 0.00000 0.30532 3.48981
				CHANNELS 3 Xrotation Yrotation Zrotation
				JOINT Spine3
				{
					OFFSET 0.00000 0.00000 3.50314
					CHANNELS 3 Xrotation Yrotation Zrotation
					JOINT Neck
					{
						OFFSET 0.00000 -1.31367 9.19575
						CHANNELS 3 Xrotation Yrotation Zrotation
						JOINT Head
						{
							OFFSET 0.00000 -0.83643 4.74364
							CHANNELS 3 Xrotation Yrotation Zrotation
							End Site
							{
								OFFSET 0.00000 0.00001 5.67071
							}
						}
					}
					JOINT RightShoulder
					{
						OFFSET -1.05974 -1.76624 5.72262
						CHANNELS 3 Xrotation Yrotation Zrotation
						JOINT RightArm
						{
							OFFSET -5.26340 0.00000 0.00000
							CHANNELS 3 Xrotation Yrotation Zrotation
							JOINT RightForeArm
							{
								OFFSET -10.14667 0.00000 0.00000
								CHANNELS 3 Xrotation Yrotation Zrotation
								JOINT RightHand
								{
									OFFSET -8.53343 0.00000 0.00000
									CHANNELS 3 Xrotation Yrotation Zrotation
									JOINT RightHandEnd
									{
										OFFSET -2.46135 0.00000 0.00000
										CHANNELS 3 Xrotation Yrotation Zrotation
										End Site
										{
											OFFSET -2.46135 0.00000 0.00000
										}
									}
									JOINT RightHandThumb1
									{
										OFFSET -0.98454 -1.64090 -0.65636
										CHANNELS 3 Yrotation Xrotation Zrotation
										End Site
										{
											OFFSET -2.37748 -0.63704 0.00000
										}
									}
								}
							}
						}
					}
					JOINT LeftShoulder
					{
						OFFSET 1.05974 -1.76624 5.72262
						CHANNELS 3 Xrotation Yrotation Zrotation
						JOINT LeftArm
						{
							OFFSET 5.26340 0.00000 0.00000
							CHANNELS 3 Xrotation Yrotation Zrotation
							JOINT LeftForeArm
							{
								OFFSET 10.14667 0.00000 0.00000
								CHANNELS 3 Xrotation Yrotation Zrotation
								JOINT LeftHand
								{
									OFFSET 8.53343 0.00000 0.00000
									CHANNELS 3 Xrotation Yrotation Zrotation
									JOINT LeftHandEnd
									{
										OFFSET 2.46135 0.00000 0.00000
										CHANNELS 3 Xrotation Yrotation Zrotation
										End Site
										{
											OFFSET 2.46135 0.00000 0.00000
										}
									}
									JOINT LeftHandThumb1
									{
										OFFSET 0.98454 -1.64090 -0.65636
										CHANNELS 3 Yrotation Xrotation Zrotation
										End Site
										{
											OFFSET 2.37748 -0.63704 0.00000
										}
									}
								}
							}
						}
					}
				}
			}
		}
	}
	JOINT RightUpLeg
	{
		OFFSET -3.14391 0.00000 -0.91845
		CHANNELS 3 Xrotation Yrotation Zrotation
		JOINT RightLeg
		{
			OFFSET 0.00000 0.00000 -14.43197
			CHANNELS 3 Xrotation Yrotation Zrotation
			JOINT RightFoot
			{
				OFFSET 0.00000 0.00000 -14.31693
				CHANNELS 3 Xrotation Yrotation Zrotation
				JOINT RightToeBase
				{
					OFFSET 0.00000 -4.51635 -1.64382
					CHANNELS 3 Xrotation Yrotation Zrotation
					End Site
					{
						OFFSET 0.00000 -2.54339 -0.00000
					}
				}
			}
		}
	}
	JOINT LeftUpLeg
	{
		OFFSET 3.14391 0.00000 -0.91845
		CHANNELS 3 Xrotation Yrotation Zrotation
		JOINT LeftLeg
		{
			OFFSET 0.00000 0.00000 -14.43197
			CHANNELS 3 Xrotation Yrotation Zrotation
			JOINT LeftFoot
			{
				OFFSET 0.00000 0.00000 -14.31693
				CHANNELS 3 Xrotation Yrotation Zrotation
				JOINT LeftToeBase
				{
					OFFSET 0.00000 -4.51635 -1.64382
					CHANNELS 3 Xrotation Yrotation Zrotation
					End Site
					{
						OFFSET 0.00000 -2.54339 -0.00000
					}
				}
			}
		}
	}
}
MOTION
Frames: 7
Frame Time: 0.008342
 15.0511 -20.7598 31.7965 1.8498 -2.5746 -91.8961 -1.3012 -0.3544 0.0612 -1.0147 -0.6947 -0.1500 0.3715 -0.0891 -2.0816 0.1210 0.1745 -0.6235 -3.8631 -0.6506 -0.3155 1.3337 0.1998 0.6105 -2.4034 11.6406 2.2180 -3.4599 -1.5050 -3.9775 0.0000 0.0000 1.9069 -0.9901 5.2764 -8.5533 0.0000 0.0000 0.0000 0.0000 -0.0000 -0.0000 -2.6864 -12.2330 -3.6533 -0.1304 7.6882 13.3030 -0.0000 -0.0000 -8.8625 -2.7936 -1.1880 4.4146 0.0000 -0.0000 -0.0000 0.0000 0.0000 -0.0000 1.2334 2.2474 -6.4349 -2.3430 0.0000 -0.0000 -3.7891 -5.9169 -11.1176 1.2248 0.0000 0.0000 -0.3731 -3.9468 26.8279 1.5168 0.0000 0.0000 -2.8649 3.1432 1.0301 -0.2634 0.0000 -0.0000
 15.0489 -20.7583 31.7966 1.8484 -2.5707 -91.8847 -1.2975 -0.3560 0.0619 -1.0131 -0.6936 -0.1501 0.3755 -0.0880 -2.0819 0.1212 0.1761 -0.6247 -3.8634 -0.6461 -0.3181 1.3281 0.1852 0.6067 -2.3972 11.6565 2.2178 -3.4669 -1.5257 -3.9791 0.0000 0.0000 1.9054 -0.9781 5.2732 -8.5569 -0.0000 -0.0000 0.0000 -0.0000 -0.0000 0.0000 -2.6939 -12.2412 -3.6596 -0.1231 7.7013 13.2961 -0.0000 -0.0000 -8.8570 -2.7691 -1.1369 4.4210 -0.0000 -0.0000 -0.0000 0.0000 -0.0000 -0.0000 1.2368 2.2461 -6.4548 -2.3299 0.0000 -0.0000 -3.7987 -5.9100 -11.1087 1.2248 0.0000 0.0000 -0.3795 -3.9535 26.8035 1.5437 0.0000 0.0000 -2.8732 3.1481 1.0461 -0.2708 0.0000 -0.0000
 15.0461 -20.7562 31.7968 1.8486 -2.5672 -91.8693 -1.2927 -0.3585 0.0624 -1.0131 -0.6938 -0.1499 0.3813 -0.0862 -2.0828 0.1217 0.1783 -0.6263 -3.8644 -0.6404 -0.3216 1.3212 0.1679 0.6008 -2.3893 11.6766 2.2172 -3.4719 -1.5520 -3.9809 0.0000 0.0000 1.9033 -0.9606 5.2648 -8.5612 0.0000 -0.0000 0.0000 -0.0000 -0.0000 0.0000 -2.7026 -12.2512 -3.6670 -0.1139 7.7165 13.2873 -0.0000 -0.0000 -8.8530 -2.7422 -1.0734 4.4275 0.0000 -0.0000 -0.0000 0.0000 0.0000 -0.0000 1.2397 2.2420 -6.4805 -2.3129 0.0000 -0.0000 -3.8106 -5.9017 -11.0974 1.2234 0.0000 0.0000 -0.3902 -3.9649 26.7700 1.5799 0.0000 0.0000 -2.8848 3.1516 1.0672 -0.2821 0.0000 -0.0000
 15.0432 -20.7535 31.7970 1.8498 -2.5684 -91.8502 -1.2916 -0.3616 0.0627 -1.0144 -0.6952 -0.1503 0.3893 -0.0836 -2.0834 0.1224 0.1808 -0.6278 -3.8669 -0.6332 -0.3255 1.3138 0.1487 0.5919 -2.3802 11.6981 2.2164 -3.4740 -1.5801 -3.9824 0.0000 0.0000 1.9002 -0.9403 5.2510 -8.5670 0.0000 0.0000 0.0000 -0.0000 0.0000 0.0000 -2.7114 -12.2610 -3.6748 -0.1028 7.7316 13.2757 -0.0000 -0.0000 -8.8514 -2.7156 -0.9998 4.4338 -0.0000 0.0000 0.0000 0.0000 -0.0000 0.0000 1.2359 2.2354 -6.5122 -2.2904 0.0000 -0.0000 -3.8252 -5.8923 -11.0834 1.2197 0.0000 0.0000 -0.4106 -3.9806 26.7280 1.6259 0.0000 0.0000 -2.8994 3.1531 1.0927 -0.2973 0.0000 -0.0000
 15.0396 -20.7505 31.7973 1.8512 -2.5690 -91.8282 -1.2900 -0.3647 0.0637 -1.0147 -0.6958 -0.1506 0.3973 -0.0822 -2.0847 0.1235 0.1839 -0.6299 -3.8697 -0.6242 -0.3304 1.3052 0.1272 0.5813 -2.3689 11.7228 2.2161 -3.4743 -1.6115 -3.9840 0.0000 0.0000 1.8963 -0.9167 5.2331 -8.5741 0.0000 -0.0000 0.0000 -0.0000 -0.0000 0.0000 -2.7193 -12.2707 -3.6826 -0.0907 7.7459 13.2621 -0.0000 -0.0000 -8.8521 -2.6892 -0.9196 4.4376 0.0000 -0.0000 -0.0000 -0.0000 0.0000 -0.0000 1.2334 2.2280 -6.5468 -2.2656 0.0000 -0.0000 -3.8421 -5.8818 -11.0688 1.2156 0.0000 0.0000 -0.4321 -3.9982 26.6811 1.6773 0.0000 0.0000 -2.9152 3.1539 1.1201 -0.3159 0.0000 -0.0000
 15.0355 -20.7470 31.7976 1.8536 -2.5690 -91.8041 -1.2875 -0.3680 0.0651 -1.0152 -0.6967 -0.1507 0.4059 -0.0812 -2.0861 0.1244 0.1874 -0.6322 -3.8722 -0.6137 -0.3351 1.2957 0.1039 0.5669 -2.3561 11.7489 2.2155 -3.4732 -1.6440 -3.9856 0.0000 0.0000 1.8914 -0.8922 5.2125 -8.5812 -0.0000 0.0000 -0.0000 0.0000 -0.0000 0.0000 -2.7245 -12.2797 -3.6903 -0.0775 7.7588 13.2458 -0.0000 -0.0000 -8.8549 -2.6669 -0.8372 4.4391 -0.0000 -0.0000 -0.0000 -0.0000 0.0000 -0.0000 1.2321 2.2187 -6.5819 -2.2392 0.0000 -0.0000 -3.8610 -5.8708 -11.0553 1.2093 0.0000 0.0000 -0.4545 -4.0188 26.6304 1.7335 0.0000 0.0000 -2.9327 3.1532 1.1490 -0.3379 0.0000 -0.0000
 15.0311 -20.7431 31.7979 1.8567 -2.5702 -91.7780 -1.2859 -0.3709 0.0662 -1.0158 -0.6978 -0.1509 0.4147 -0.0809 -2.0875 0.1253 0.1911 -0.6345 -3.8755 -0.6023 -0.3407 1.2862 0.0801 0.5506 -2.3427 11.7752 2.2156 -3.4714 -1.6756 -3.9875 0.0000 0.0000 1.8860 -0.8687 5.1918 -8.5881 -0.0000 0.0000 0.0000 -0.0000 -0.0000 0.0000 -2.7270 -12.2876 -3.6974 -0.0636 7.7691 13.2273 -0.0000 -0.0000 -8.8602 -2.6482 -0.7582 4.4375 0.0000 0.0000 0.0000 0.0000 0.0000 0.0000 1.2301 2.2078 -6.6193 -2.2121 0.0000 -0.0000 -3.8809 -5.8598 -11.0412 1.2011 0.0000 0.0000 -0.4794 -4.0414 26.5775 1.7932 0.0000 0.0000 -2.9513 3.1511 1.1782 -0.3622 0.0000 -0.0000
